<?xml version="1.0" encoding="UTF-8" standalone="no"?>
<!DOCTYPE svg PUBLIC "-//W3C//DTD SVG 1.1//EN" "http://www.w3.org/Graphics/SVG/1.1/DTD/svg11.dtd">
<svg version="1.1" xmlns="http://www.w3.org/2000/svg" xmlns:xlink="http://www.w3.org/1999/xlink" preserveAspectRatio="xMidYMid meet" viewBox="0 0 2000 2000" width="2000" height="2000"><defs><path d="M1137.55 530.73L1142.32 530.78L1147.01 530.85L1151.61 530.93L1156.11 531.02L1160.53 531.13L1164.85 531.25L1169.85 531.41L1174.81 531.6L1179.73 531.82L1184.6 532.06L1189.44 532.34L1194.24 532.63L1198.99 532.95L1203.71 533.3L1208.39 533.67L1213.03 534.06L1217.64 534.47L1222.2 534.9L1226.73 535.35L1231.22 535.81L1235.68 536.3L1240.1 536.79L1244.48 537.31L1248.83 537.84L1253.15 538.38L1257.42 538.93L1261.67 539.5L1265.88 540.08L1270.06 540.66L1274.2 541.25L1278.31 541.86L1282.39 542.46L1286.44 543.08L1290.46 543.7L1294.44 544.32L1298.4 544.94L1302.32 545.57L1306.21 546.2L1310.08 546.83L1313.91 547.45L1317.72 548.08L1321.5 548.7L1325.24 549.32L1328.97 549.94L1332.66 550.54L1336.33 551.15L1338.08 551.43L1339.83 551.72L1341.57 552L1343.31 552.27L1345.04 552.54L1346.76 552.81L1348.48 553.08L1350.18 553.34L1351.89 553.6L1353.58 553.85L1355.27 554.1L1356.95 554.35L1358.63 554.59L1360.3 554.83L1361.96 555.06L1363.62 555.3L1365.26 555.53L1366.91 555.75L1368.54 555.97L1370.17 556.19L1371.79 556.4L1373.41 556.61L1375.02 556.82L1376.62 557.02L1378.21 557.22L1379.8 557.42L1381.39 557.61L1382.96 557.8L1384.53 557.99L1386.09 558.17L1387.65 558.34L1389.2 558.52L1390.74 558.69L1392.27 558.86L1393.8 559.02L1395.32 559.18L1396.84 559.34L1398.35 559.49L1399.85 559.64L1401.35 559.78L1402.76 559.61L1404.15 559.45L1405.54 559.3L1406.91 559.16L1408.26 559.04L1409.61 558.92L1410.94 558.82L1412.26 558.74L1413.56 558.66L1414.86 558.6L1416.13 558.55L1417.4 558.51L1418.65 558.49L1419.89 558.47L1421.12 558.47L1422.33 558.49L1423.53 558.51L1424.72 558.55L1425.89 558.6L1427.05 558.66L1428.2 558.73L1429.33 558.82L1430.45 558.92L1431.56 559.03L1432.66 559.15L1433.74 559.29L1434.81 559.44L1435.86 559.6L1436.9 559.77L1437.93 559.96L1438.95 560.16L1439.95 560.37L1440.94 560.59L1441.92 560.83L1442.88 561.07L1443.83 561.33L1444.77 561.61L1445.69 561.89L1446.6 562.19L1447.5 562.5L1448.39 562.82L1449.28 563.16L1450.16 563.5L1451.04 563.86L1451.92 564.24L1452.79 564.62L1453.66 565.02L1454.53 565.43L1455.39 565.85L1456.25 566.28L1457.11 566.73L1457.97 567.19L1458.82 567.66L1459.67 568.14L1460.51 568.64L1461.35 569.15L1462.19 569.67L1463.03 570.2L1463.86 570.75L1464.69 571.31L1465.52 571.88L1466.34 572.46L1467.16 573.06L1467.98 573.67L1468.79 574.29L1469.6 574.92L1470.41 575.57L1471.22 576.22L1472.02 576.89L1472.82 577.58L1473.61 578.27L1474.4 578.98L1475.19 579.7L1475.98 580.43L1476.76 581.18L1477.54 581.93L1478.32 582.7L1479.09 583.48L1479.86 584.28L1480.63 585.09L1481.33 585.33L1482.03 585.58L1482.72 585.83L1483.41 586.07L1484.1 586.32L1484.77 586.56L1485.44 586.8L1486.11 587.04L1486.77 587.27L1487.43 587.51L1488.07 587.74L1488.72 587.97L1489.36 588.2L1489.99 588.43L1490.62 588.65L1491.24 588.88L1491.85 589.1L1492.46 589.32L1493.07 589.54L1493.67 589.76L1494.26 589.97L1494.85 590.19L1495.43 590.4L1496.01 590.61L1496.58 590.82L1497.15 591.03L1497.71 591.23L1498.26 591.44L1498.81 591.64L1499.35 591.84L1499.89 592.04L1500.42 592.23L1500.95 592.43L1501.47 592.62L1501.99 592.82L1502.5 593.01L1503 593.19L1503.5 593.38L1503.99 593.57L1504.48 593.75L1506.05 594.36L1507.58 594.98L1509.09 595.63L1510.56 596.31L1512.01 597L1513.43 597.72L1514.82 598.47L1516.19 599.25L1517.53 600.05L1518.85 600.88L1520.14 601.74L1521.4 602.62L1522.65 603.54L1523.86 604.49L1525.06 605.47L1526.24 606.49L1527.39 607.54L1528.52 608.62L1529.63 609.73L1530.73 610.89L1531.8 612.07L1532.85 613.3L1533.89 614.56L1534.91 615.87L1535.91 617.21L1536.89 618.59L1537.86 620.02L1538.82 621.48L1539.76 622.99L1540.68 624.54L1541.59 626.14L1542.49 627.78L1543.38 629.47L1544.25 631.2L1545.12 632.98L1545.97 634.81L1546.81 636.69L1547.64 638.62L1548.47 640.6L1549.28 642.63L1549.91 644.29L1550.5 645.99L1551.05 647.71L1551.55 649.45L1552.03 651.22L1552.46 653.01L1552.86 654.83L1553.23 656.66L1553.56 658.52L1553.86 660.39L1554.14 662.28L1554.39 664.18L1554.61 666.1L1554.81 668.03L1554.99 669.97L1555.14 671.92L1555.28 673.89L1555.4 675.86L1555.5 677.83L1555.58 679.82L1555.66 681.8L1555.72 683.79L1555.77 685.79L1555.81 687.78L1555.84 689.77L1555.87 691.76L1555.89 693.75L1555.91 695.73L1555.93 697.71L1555.95 699.68L1555.97 701.64L1555.99 703.6L1556.02 705.54L1556.05 707.47L1556.09 709.39L1556.14 711.3L1556.2 713.19L1556.27 715.06L1556.36 716.91L1556.46 718.75L1556.54 720.07L1556.62 721.42L1556.71 722.8L1556.8 724.2L1556.89 725.64L1556.99 727.11L1557.09 728.6L1557.2 730.12L1557.31 731.68L1557.42 733.26L1557.54 734.87L1557.66 736.51L1557.78 738.18L1557.91 739.88L1558.04 741.61L1558.17 743.37L1558.31 745.15L1558.45 746.97L1558.6 748.81L1558.75 750.69L1558.9 752.59L1559.06 754.52L1559.22 756.48L1559.38 758.47L1559.55 760.49L1559.72 762.54L1559.9 764.62L1560.07 766.73L1560.26 768.86L1560.44 771.03L1560.63 773.22L1560.82 775.45L1561.02 777.7L1561.22 779.98L1561.43 782.3L1561.63 784.64L1561.84 787.01L1562.06 789.4L1562.28 791.83L1562.5 794.29L1562.83 794.47L1563.15 794.65L1563.47 794.83L1563.78 795.01L1564.09 795.2L1564.38 795.39L1564.68 795.59L1564.97 795.78L1565.25 795.98L1565.52 796.18L1565.8 796.39L1566.06 796.6L1566.32 796.81L1566.57 797.02L1566.82 797.24L1567.06 797.46L1567.3 797.68L1567.52 797.91L1567.75 798.13L1567.97 798.37L1568.18 798.6L1568.38 798.84L1568.59 799.08L1568.78 799.32L1568.97 799.56L1569.15 799.81L1569.33 800.06L1569.5 800.32L1569.67 800.57L1569.83 800.83L1569.98 801.1L1570.13 801.36L1570.27 801.63L1570.41 801.9L1570.54 802.18L1570.66 802.45L1570.78 802.73L1570.89 803.02L1571 803.3L1571.1 803.59L1571.77 805.5L1572.46 807.39L1573.17 809.24L1573.91 811.06L1574.67 812.86L1575.46 814.62L1576.27 816.36L1577.11 818.07L1577.97 819.74L1578.85 821.39L1579.76 823.01L1580.69 824.6L1581.65 826.16L1582.63 827.69L1583.64 829.19L1584.67 830.66L1585.72 832.1L1586.8 833.52L1587.9 834.9L1589.02 836.26L1590.17 837.58L1591.35 838.88L1592.55 840.14L1593.77 841.38L1595.02 842.58L1596.29 843.76L1597.58 844.91L1598.9 846.03L1600.25 847.12L1601.61 848.18L1603.01 849.21L1604.42 850.21L1605.86 851.18L1607.33 852.13L1608.82 853.04L1610.33 853.92L1611.87 854.78L1613.43 855.6L1615.01 856.4L1616.62 857.16L1708.98 864.8L1859.38 1004.78L1750 1115.23L1605.86 961.53L1593.75 890.63L1592.54 888.7L1591.34 886.84L1590.17 885.03L1589.01 883.28L1587.87 881.59L1586.75 879.96L1585.66 878.39L1584.58 876.88L1583.51 875.42L1582.47 874.02L1581.45 872.69L1580.44 871.41L1579.46 870.19L1578.49 869.02L1577.55 867.92L1576.62 866.88L1575.71 865.89L1574.82 864.96L1573.95 864.09L1573.1 863.28L1572.26 862.53L1571.45 861.84L1570.65 861.2L1569.88 860.63L1569.12 860.11L1568.38 859.65L1567.66 859.25L1566.96 858.91L1566.28 858.62L1565.62 858.4L1564.98 858.23L1564.35 858.13L1563.75 858.08L1563.16 858.09L1562.6 858.15L1562.05 858.28L1561.52 858.47L1561.01 858.71L1560.52 859.01L1560.05 859.38L1559.38 860L1558.77 860.7L1558.2 861.49L1557.69 862.35L1557.22 863.29L1556.79 864.31L1556.41 865.41L1556.06 866.59L1555.76 867.84L1555.49 869.18L1555.26 870.59L1555.06 872.09L1554.89 873.66L1554.75 875.31L1554.63 877.04L1554.54 878.85L1554.47 880.74L1554.43 882.7L1554.4 884.75L1554.39 886.87L1554.4 889.07L1554.41 891.35L1554.44 893.71L1554.48 896.15L1554.53 898.67L1554.58 901.27L1554.63 903.94L1554.69 906.69L1554.75 909.53L1554.8 912.44L1554.85 915.43L1554.89 918.5L1554.93 921.64L1554.95 924.87L1554.96 928.17L1554.96 931.56L1554.94 935.02L1554.91 938.56L1554.85 942.18L1554.78 945.88L1554.67 949.64L1554.52 953.44L1554.34 957.29L1554.12 961.19L1553.87 965.12L1553.59 969.1L1553.27 973.11L1552.93 977.15L1552.56 981.23L1552.16 985.33L1551.74 989.47L1551.29 993.63L1550.82 997.82L1550.33 1002.03L1549.82 1006.27L1549.3 1010.52L1548.75 1014.79L1548.19 1019.07L1547.62 1023.37L1547.03 1027.68L1546.44 1031.99L1545.83 1036.32L1545.22 1040.65L1544.6 1044.99L1543.97 1049.32L1543.34 1053.66L1542.7 1057.99L1542.07 1062.32L1541.44 1066.64L1540.8 1070.96L1540.17 1075.26L1539.55 1079.55L1538.93 1083.83L1538.32 1088.1L1537.71 1092.34L1537.12 1096.57L1536.54 1100.77L1535.97 1104.95L1535.41 1109.1L1534.88 1113.23L1533.79 1121.29L1532.61 1129.56L1531.32 1138.02L1529.92 1146.65L1528.41 1155.44L1526.8 1164.36L1525.08 1173.41L1523.26 1182.57L1521.32 1191.82L1519.28 1201.15L1517.13 1210.54L1514.87 1219.97L1512.5 1229.43L1510.03 1238.9L1507.44 1248.37L1504.74 1257.82L1501.94 1267.24L1499.02 1276.6L1495.99 1285.9L1492.85 1295.12L1489.6 1304.23L1486.24 1313.23L1482.76 1322.11L1479.17 1330.83L1475.47 1339.39L1471.66 1347.78L1467.73 1355.97L1463.69 1363.94L1459.54 1371.7L1455.27 1379.21L1450.89 1386.46L1446.39 1393.44L1441.78 1400.13L1437.05 1406.51L1432.21 1412.57L1427.25 1418.3L1422.18 1423.67L1416.99 1428.67L1411.68 1433.29L1406.25 1437.5L1400.75 1441.43L1395.23 1445.2L1389.67 1448.81L1384.07 1452.27L1378.43 1455.58L1372.74 1458.75L1366.99 1461.77L1361.19 1464.65L1355.31 1467.39L1349.36 1469.99L1343.34 1472.47L1337.23 1474.81L1331.03 1477.03L1324.73 1479.13L1318.34 1481.1L1311.84 1482.96L1305.23 1484.7L1298.49 1486.33L1291.64 1487.86L1284.66 1489.27L1277.54 1490.59L1270.29 1491.8L1262.89 1492.92L1255.33 1493.95L1247.62 1494.88L1239.75 1495.73L1231.71 1496.49L1223.5 1497.17L1215.11 1497.77L1206.53 1498.29L1197.77 1498.74L1188.8 1499.12L1179.64 1499.44L1170.27 1499.69L1160.68 1499.88L1150.88 1500.01L1140.85 1500.08L1130.6 1500.1L1120.11 1500.07L1109.38 1500L1098.76 1499.92L1088.61 1499.89L1078.9 1499.87L1069.62 1499.88L1060.73 1499.9L1052.24 1499.92L1044.1 1499.93L1036.31 1499.92L1028.84 1499.89L1021.68 1499.82L1014.8 1499.71L1008.18 1499.54L1001.8 1499.32L995.65 1499.02L989.69 1498.65L983.92 1498.18L978.31 1497.62L972.85 1496.96L967.5 1496.17L962.26 1495.27L957.1 1494.23L952 1493.05L946.94 1491.73L941.9 1490.24L936.87 1488.58L931.81 1486.75L926.71 1484.73L921.56 1482.51L916.33 1480.09L910.99 1477.46L905.54 1474.61L899.95 1471.53L894.19 1468.21L888.26 1464.63L882.13 1460.81L875.77 1456.71L869.18 1452.34L862.32 1447.69L855.19 1442.75L847.75 1437.5L843.04 1434.03L838.41 1430.38L833.86 1426.57L829.39 1422.59L825 1418.46L820.69 1414.19L816.45 1409.78L812.3 1405.25L808.22 1400.61L804.23 1395.86L800.31 1391.01L796.47 1386.07L792.72 1381.06L789.04 1375.98L785.45 1370.84L781.94 1365.65L778.5 1360.42L775.15 1355.16L771.88 1349.87L768.69 1344.58L765.59 1339.27L762.56 1333.97L759.62 1328.69L756.76 1323.43L753.98 1318.2L751.28 1313.02L748.67 1307.89L746.13 1302.81L743.69 1297.81L741.32 1292.88L739.04 1288.05L736.84 1283.31L734.73 1278.67L732.7 1274.16L730.75 1269.76L728.89 1265.51L727.11 1261.39L725.42 1257.43L723.81 1253.63L722.28 1250L721.41 1247.92L720.57 1245.92L719.75 1244.01L718.96 1242.18L718.2 1240.43L717.46 1238.76L716.74 1237.17L716.05 1235.65L715.37 1234.21L714.72 1232.84L714.08 1231.54L713.45 1230.32L712.84 1229.16L712.24 1228.07L711.65 1227.05L711.08 1226.09L710.51 1225.2L709.94 1224.37L709.39 1223.59L708.83 1222.88L708.28 1222.22L707.73 1221.62L707.18 1221.08L706.63 1220.59L706.07 1220.14L705.51 1219.75L704.94 1219.41L704.37 1219.12L703.78 1218.87L703.19 1218.67L702.58 1218.5L701.96 1218.39L701.33 1218.31L700.68 1218.27L700.01 1218.26L699.32 1218.29L698.61 1218.36L697.88 1218.46L697.12 1218.59L696.34 1218.75L695.12 1219.06L693.92 1219.43L692.76 1219.87L691.61 1220.36L690.49 1220.93L689.4 1221.55L688.33 1222.23L687.27 1222.97L686.24 1223.77L685.23 1224.62L684.24 1225.53L683.26 1226.49L682.3 1227.5L681.35 1228.56L680.42 1229.67L679.5 1230.83L678.59 1232.04L677.7 1233.29L676.81 1234.58L675.93 1235.92L675.06 1237.3L674.2 1238.72L673.34 1240.18L672.48 1241.67L671.63 1243.2L670.78 1244.77L669.94 1246.37L669.09 1248L668.24 1249.66L667.39 1251.36L666.54 1253.08L665.68 1254.83L664.82 1256.6L663.95 1258.4L663.07 1260.22L662.19 1262.07L661.29 1263.93L660.39 1265.81L659.47 1267.72L658.55 1269.64L657.88 1271.01L657.2 1272.38L656.5 1273.76L655.8 1275.14L655.09 1276.53L654.36 1277.92L653.62 1279.31L652.88 1280.71L652.13 1282.11L651.36 1283.52L650.59 1284.94L649.81 1286.35L649.02 1287.78L648.23 1289.2L647.42 1290.63L646.62 1292.07L645.8 1293.51L644.98 1294.96L644.15 1296.41L643.32 1297.87L642.48 1299.33L641.64 1300.8L640.8 1302.27L639.95 1303.74L639.1 1305.23L638.25 1306.71L637.39 1308.21L636.53 1309.71L635.67 1311.21L634.81 1312.72L633.95 1314.23L633.09 1315.75L632.22 1317.28L631.36 1318.81L630.5 1320.35L629.64 1321.89L628.78 1323.44L627.92 1325L627.07 1326.56L626.22 1328.13L623.14 1333.81L620.04 1339.52L616.93 1345.25L613.79 1350.98L610.63 1356.71L607.44 1362.43L604.21 1368.14L600.95 1373.82L597.65 1379.48L594.3 1385.1L590.9 1390.67L587.45 1396.2L583.95 1401.66L580.38 1407.06L576.75 1412.38L573.05 1417.62L569.29 1422.77L565.44 1427.83L561.52 1432.79L557.52 1437.63L553.43 1442.36L549.25 1446.96L544.98 1451.43L540.6 1455.76L536.13 1459.94L531.56 1463.96L526.87 1467.83L522.07 1471.52L517.16 1475.04L512.12 1478.38L506.96 1481.52L501.68 1484.47L496.26 1487.21L490.71 1489.73L485.01 1492.04L479.18 1494.12L473.2 1495.96L467.07 1497.56L460.79 1498.91L454.34 1500L448.94 1500.7L443.48 1501.21L437.96 1501.53L432.38 1501.66L426.75 1501.61L421.09 1501.37L415.39 1500.94L409.66 1500.33L403.92 1499.53L398.16 1498.55L392.39 1497.38L386.62 1496.02L380.86 1494.48L375.11 1492.76L369.37 1490.85L363.67 1488.75L357.99 1486.47L352.35 1484L346.76 1481.35L341.22 1478.52L335.73 1475.5L330.31 1472.3L324.96 1468.92L319.69 1465.35L314.51 1461.6L309.41 1457.66L304.41 1453.55L299.51 1449.25L294.73 1444.77L290.06 1440.1L285.51 1435.25L281.1 1430.23L276.81 1425.02L272.68 1419.63L268.69 1414.05L264.86 1408.3L261.19 1402.36L257.69 1396.25L254.36 1389.95L251.22 1383.48L250.18 1381.2L249.18 1378.9L248.21 1376.57L247.27 1374.23L246.36 1371.86L245.49 1369.47L244.65 1367.06L243.85 1364.62L243.07 1362.17L242.33 1359.69L241.62 1357.19L240.95 1354.66L240.31 1352.12L239.7 1349.55L239.12 1346.96L238.58 1344.34L238.07 1341.71L237.59 1339.05L237.15 1336.37L236.74 1333.67L236.36 1330.94L236.02 1328.2L235.7 1325.43L235.42 1322.64L235.18 1319.82L234.96 1316.99L234.78 1314.13L234.64 1311.25L234.52 1308.34L234.44 1305.42L234.39 1302.47L234.38 1299.5L234.39 1296.51L234.44 1293.49L234.52 1290.46L234.64 1287.4L234.79 1284.32L234.97 1281.21L235.19 1278.09L235.43 1274.94L235.44 1274.89L235.45 1274.84L235.46 1274.79L235.47 1274.74L235.49 1274.69L235.51 1274.65L235.53 1274.61L235.56 1274.57L235.59 1274.53L235.61 1274.49L235.64 1274.46L235.68 1274.42L235.71 1274.39L235.75 1274.36L235.78 1274.34L235.82 1274.31L235.86 1274.29L235.9 1274.27L235.94 1274.25L235.99 1274.24L236.03 1274.23L236.07 1274.22L236.12 1274.21L236.16 1274.2L236.21 1274.2L236.26 1274.2L236.3 1274.2L236.35 1274.2L236.39 1274.21L236.44 1274.22L236.48 1274.23L236.53 1274.25L236.57 1274.27L236.61 1274.29L236.65 1274.31L236.7 1274.34L236.74 1274.37L236.77 1274.4L236.81 1274.44L236.85 1274.48L242.91 1281.4L248.91 1288.14L254.83 1294.67L260.68 1301.01L266.45 1307.15L272.16 1313.09L277.79 1318.84L283.35 1324.4L288.83 1329.75L294.25 1334.91L299.59 1339.87L304.86 1344.64L310.06 1349.21L315.19 1353.58L320.24 1357.75L325.22 1361.73L330.13 1365.52L334.97 1369.1L339.73 1372.49L344.42 1375.68L349.04 1378.68L353.59 1381.48L358.07 1384.08L362.47 1386.49L366.8 1388.7L371.06 1390.71L375.25 1392.53L379.36 1394.15L383.4 1395.58L387.37 1396.8L391.27 1397.83L395.09 1398.67L398.85 1399.31L402.53 1399.75L406.14 1399.99L409.67 1400.04L413.14 1399.89L416.53 1399.55L419.85 1399L423.09 1398.27L427.92 1396.8L432.7 1394.93L437.41 1392.67L442.08 1390.02L446.68 1386.99L451.24 1383.59L455.74 1379.82L460.19 1375.7L464.59 1371.23L468.94 1366.42L473.24 1361.27L477.49 1355.79L481.69 1349.99L485.85 1343.88L489.95 1337.46L494.01 1330.74L498.03 1323.73L502 1316.43L505.92 1308.86L509.8 1301.01L513.64 1292.91L517.44 1284.54L521.19 1275.93L524.91 1267.08L528.58 1257.99L532.22 1248.68L535.81 1239.15L539.37 1229.4L542.89 1219.45L546.37 1209.3L549.82 1198.96L553.23 1188.44L556.61 1177.74L559.95 1166.88L563.26 1155.85L566.54 1144.66L569.79 1133.33L573 1121.86L576.19 1110.26L579.34 1098.53L581.39 1090.66L583.35 1082.78L585.22 1074.87L586.99 1066.95L588.68 1059.01L590.27 1051.05L591.78 1043.07L593.19 1035.08L594.51 1027.06L595.75 1019.03L596.89 1010.98L597.94 1002.91L598.9 994.82L599.77 986.71L600.55 978.59L601.24 970.45L601.84 962.29L602.34 954.11L602.76 945.91L603.09 937.7L603.32 929.46L603.47 921.21L603.52 912.94L603.49 904.65L603.36 896.34L603.14 888.02L602.83 879.68L602.43 871.31L601.95 862.93L601.37 854.54L600.69 846.12L599.93 837.68L599.08 829.23L598.14 820.76L597.11 812.27L595.98 803.76L594.77 795.24L593.46 786.69L592.07 778.13L590.58 769.55L586.76 769.73L582.97 769.89L579.19 770.03L575.43 770.14L571.69 770.23L567.97 770.3L564.27 770.34L560.59 770.36L556.93 770.35L553.29 770.33L549.67 770.28L546.07 770.2L542.48 770.1L538.92 769.98L535.38 769.83L531.85 769.67L528.35 769.47L524.86 769.26L521.4 769.02L517.95 768.75L514.53 768.47L511.12 768.16L507.73 767.82L504.36 767.47L501.01 767.08L497.68 766.68L494.38 766.25L491.09 765.8L487.81 765.33L484.56 764.83L481.33 764.3L478.12 763.76L474.93 763.19L471.75 762.6L468.6 761.98L465.47 761.34L462.35 760.68L459.26 759.99L456.18 759.28L453.13 758.55L450.09 757.79L447.07 757.01L444.07 756.21L441.1 755.38L438.14 754.53L435.2 753.65L432.28 752.75L429.38 751.83L426.5 750.89L423.64 749.92L420.8 748.92L417.97 747.91L415.17 746.87L412.39 745.8L409.62 744.72L406.88 743.61L404.16 742.47L401.45 741.32L398.76 740.14L396.1 738.93L393.45 737.7L390.82 736.45L388.22 735.18L385.63 733.88L383.06 732.56L380.51 731.21L377.98 729.84L375.47 728.45L372.98 727.03L370.51 725.59L368.06 724.13L365.63 722.64L363.21 721.13L360.82 719.6L358.45 718.04L356.09 716.46L353.76 714.86L351.44 713.23L349.15 711.58L346.87 709.9L346.34 708.9L345.86 707.9L345.44 706.92L345.08 705.95L344.76 704.99L344.51 704.04L344.31 703.1L344.16 702.17L344.07 701.26L344.03 700.36L344.05 699.46L344.13 698.58L344.25 697.71L344.44 696.85L344.68 696.01L344.97 695.17L345.32 694.34L345.72 693.53L346.18 692.73L346.7 691.94L347.27 691.16L347.89 690.39L348.57 689.63L349.3 688.89L350.09 688.15L350.94 687.43L351.84 686.72L352.79 686.02L353.8 685.33L354.87 684.65L355.98 683.99L357.16 683.33L358.39 682.69L359.67 682.06L361.01 681.44L362.41 680.83L363.86 680.23L365.36 679.64L366.92 679.06L368.54 678.5L370.99 677.67L373.43 676.87L375.85 676.1L378.26 675.35L380.67 674.61L383.06 673.9L385.46 673.21L387.85 672.54L390.24 671.88L392.63 671.24L395.03 670.61L397.44 669.99L399.86 669.39L402.29 668.8L404.74 668.21L407.2 667.64L409.69 667.07L412.2 666.51L414.73 665.95L417.3 665.4L419.89 664.85L422.51 664.3L425.18 663.75L427.88 663.2L430.62 662.64L433.4 662.09L436.23 661.52L439.11 660.95L442.03 660.38L445.01 659.79L448.05 659.2L451.14 658.59L454.29 657.97L457.51 657.34L460.79 656.69L464.14 656.03L467.56 655.35L471.05 654.66L474.62 653.94L478.26 653.2L481.31 652.62L484.21 652.12L486.98 651.72L489.61 651.4L492.14 651.15L494.55 650.98L496.87 650.87L499.11 650.82L501.27 650.83L503.37 650.88L505.41 650.98L507.41 651.12L509.38 651.28L511.32 651.48L513.25 651.69L515.18 651.92L517.12 652.16L519.08 652.4L521.07 652.64L523.1 652.87L525.18 653.09L527.32 653.29L529.53 653.47L531.82 653.61L534.21 653.72L536.69 653.79L539.29 653.81L542.02 653.78L544.87 653.69L547.87 653.54L551.03 653.32L554.35 653.02L557.85 652.64L561.53 652.17L565.41 651.62L569.49 650.96L573.79 650.2L578.32 649.33L583.09 648.35L588.1 647.25L593.14 646.09L597.99 644.95L602.64 643.82L607.12 642.7L611.41 641.6L615.54 640.51L619.5 639.43L623.31 638.36L626.97 637.31L630.48 636.27L633.86 635.24L637.11 634.22L640.24 633.21L643.25 632.21L646.16 631.23L648.96 630.25L651.67 629.29L654.28 628.33L656.82 627.38L659.28 626.45L661.67 625.52L664 624.6L666.28 623.69L668.51 622.79L670.7 621.9L672.85 621.02L674.97 620.14L677.07 619.28L679.16 618.41L681.25 617.56L683.33 616.72L685.41 615.88L687.51 615.04L689.63 614.22L691.77 613.4L693.95 612.58L696.17 611.77L698.43 610.97L700.75 610.17L703.13 609.38L705.64 608.55L708.35 607.67L711.26 606.73L714.37 605.73L717.67 604.68L721.15 603.57L724.83 602.42L728.68 601.22L732.72 599.97L736.93 598.68L741.32 597.35L745.87 595.97L750.59 594.56L755.48 593.12L760.52 591.64L765.72 590.13L771.08 588.59L776.58 587.02L782.24 585.43L788.03 583.82L793.97 582.18L800.05 580.53L806.26 578.86L812.6 577.18L819.07 575.48L825.66 573.77L832.37 572.06L839.21 570.34L846.16 568.61L853.22 566.88L860.39 565.16L867.66 563.43L875.04 561.71L882.51 560L890.08 558.3L897.75 556.6L905.5 554.92L913.34 553.26L921.26 551.61L929.26 549.98L936.49 548.55L943.66 547.19L950.77 545.9L957.82 544.68L964.81 543.51L971.74 542.41L978.62 541.37L985.42 540.39L992.17 539.47L998.85 538.6L1005.47 537.79L1012.02 537.03L1018.5 536.32L1024.92 535.67L1031.27 535.06L1037.54 534.49L1043.75 533.98L1049.89 533.51L1055.95 533.08L1061.94 532.69L1067.85 532.34L1073.69 532.03L1079.45 531.76L1085.14 531.52L1090.75 531.31L1096.28 531.14L1101.73 531L1107.09 530.88L1112.38 530.8L1117.58 530.74L1122.7 530.7L1127.74 530.69L1132.69 530.7L1137.55 530.73ZM1107.96 552.29L1099.34 552.47L1090.74 552.71L1082.16 553.02L1073.6 553.4L1065.06 553.84L1056.54 554.35L1048.03 554.92L1039.54 555.57L1031.08 556.27L1022.63 557.05L1010.04 558.32L997.62 559.7L985.36 561.17L973.27 562.74L961.36 564.41L949.63 566.15L938.09 567.98L926.75 569.88L915.6 571.84L904.67 573.87L893.95 575.96L883.45 578.1L873.17 580.28L863.13 582.51L853.32 584.77L843.76 587.07L834.45 589.38L825.39 591.72L816.6 594.07L808.07 596.43L799.82 598.79L791.84 601.15L784.16 603.5L776.76 605.84L769.67 608.16L762.88 610.45L756.39 612.72L750.23 614.95L744.39 617.14L738.87 619.28L733.69 621.38L728.85 623.41L724.36 625.39L720.22 627.29L716.44 629.13L713.02 630.88L709.98 632.55L707.31 634.13L705.02 635.62L703.13 637.01L702.48 637.76L701.78 639.02L701.04 640.78L700.26 643.03L699.44 645.75L698.59 648.94L697.72 652.57L696.82 656.63L695.91 661.11L694.99 665.99L694.06 671.26L693.13 676.91L692.21 682.92L691.3 689.28L690.4 695.97L689.52 702.99L688.66 710.31L687.84 717.92L687.05 725.82L686.3 733.98L685.6 742.39L684.94 751.04L684.34 759.91L683.81 768.99L683.33 778.26L682.93 787.72L682.6 797.35L682.35 807.13L682.19 817.05L682.12 827.1L682.15 837.26L682.27 847.52L682.5 857.86L682.84 868.28L683.3 878.75L683.88 889.27L684.58 899.81L685.42 910.37L686.39 920.93L687.5 931.48L688.73 942.25L690.04 953.45L691.44 965.05L692.94 977.03L694.54 989.36L696.24 1002.01L698.05 1014.94L699.97 1028.14L702.01 1041.56L704.18 1055.19L706.47 1068.98L708.9 1082.92L711.46 1096.97L714.16 1111.11L717.01 1125.3L720 1139.51L723.16 1153.72L726.47 1167.9L729.95 1182.02L733.59 1196.04L737.41 1209.94L741.4 1223.69L745.58 1237.27L749.94 1250.63L754.5 1263.76L759.25 1276.62L764.2 1289.18L769.36 1301.42L774.73 1313.31L780.31 1324.8L786.11 1335.89L792.13 1346.54L798.39 1356.71L804.87 1366.38L811.59 1375.52L818.56 1384.1L825.77 1392.09L833.23 1399.47L840.95 1406.2L848.92 1412.25L856.88 1417.8L864.54 1423.03L871.93 1427.97L879.05 1432.62L885.94 1436.98L892.61 1441.07L899.08 1444.9L905.36 1448.47L911.48 1451.79L917.45 1454.87L923.29 1457.73L929.02 1460.36L934.66 1462.78L940.22 1464.99L945.73 1467.01L951.2 1468.84L956.65 1470.5L962.1 1471.99L967.57 1473.32L973.08 1474.49L978.64 1475.52L984.27 1476.42L989.99 1477.2L995.82 1477.86L1001.78 1478.41L1007.89 1478.86L1014.16 1479.22L1020.61 1479.5L1027.27 1479.71L1034.14 1479.85L1041.25 1479.94L1048.62 1479.98L1056.26 1479.98L1064.19 1479.96L1072.43 1479.91L1081.01 1479.86L1089.93 1479.8L1099.21 1479.75L1108.89 1479.71L1118.96 1479.69L1129.14 1479.68L1139.1 1479.64L1148.87 1479.57L1158.43 1479.46L1167.8 1479.31L1176.98 1479.11L1185.96 1478.86L1194.77 1478.55L1203.39 1478.17L1211.83 1477.73L1220.1 1477.21L1228.21 1476.61L1236.15 1475.93L1243.92 1475.16L1251.54 1474.29L1259.01 1473.32L1266.32 1472.25L1273.5 1471.06L1280.52 1469.76L1287.42 1468.34L1294.17 1466.79L1300.8 1465.1L1307.3 1463.29L1313.68 1461.32L1319.94 1459.21L1326.08 1456.95L1332.12 1454.53L1338.04 1451.94L1343.87 1449.19L1349.59 1446.26L1355.22 1443.15L1360.76 1439.86L1366.21 1436.38L1371.58 1432.7L1376.87 1428.83L1382.08 1424.74L1387.22 1420.45L1392.29 1415.94L1397.3 1411.21L1402.25 1406.25L1407.11 1400.91L1411.87 1395.05L1416.51 1388.68L1421.05 1381.82L1425.48 1374.49L1429.8 1366.71L1434.02 1358.49L1438.14 1349.84L1442.16 1340.8L1446.07 1331.37L1449.89 1321.57L1453.6 1311.41L1457.22 1300.92L1460.75 1290.11L1464.17 1279L1467.51 1267.61L1470.75 1255.95L1473.9 1244.04L1476.96 1231.89L1479.93 1219.53L1482.81 1206.97L1485.6 1194.23L1488.31 1181.32L1490.93 1168.27L1493.47 1155.08L1495.93 1141.78L1498.3 1128.38L1500.6 1114.9L1502.82 1101.36L1504.95 1087.78L1507.02 1074.16L1509 1060.53L1510.91 1046.91L1512.75 1033.31L1514.52 1019.75L1516.21 1006.24L1517.84 992.81L1519.4 979.47L1520.88 966.24L1522.31 953.13L1523.64 940.16L1524.88 927.36L1526.01 914.73L1527.05 902.28L1528 890.01L1528.86 877.94L1529.63 866.06L1530.32 854.4L1530.92 842.95L1531.46 831.73L1531.92 820.73L1532.31 809.98L1532.64 799.47L1532.9 789.21L1533.11 779.22L1533.26 769.49L1533.35 760.05L1533.4 750.88L1533.41 742.01L1533.37 733.44L1533.29 725.18L1533.18 717.23L1533.03 709.6L1532.86 702.3L1532.66 695.34L1532.44 688.73L1532.2 682.47L1531.95 676.56L1531.68 671.03L1531.41 665.87L1531.13 661.1L1530.85 656.71L1530.57 652.73L1530.3 649.15L1530.04 645.98L1529.78 643.24L1529.55 640.92L1529.33 639.04L1529.13 637.61L1528.96 636.63L1528.55 634.98L1527.99 633.33L1527.29 631.67L1526.47 630.01L1525.51 628.35L1524.43 626.7L1523.23 625.05L1521.91 623.4L1520.48 621.77L1518.94 620.15L1517.3 618.55L1515.56 616.96L1513.73 615.39L1511.81 613.84L1509.81 612.31L1507.72 610.81L1505.56 609.34L1503.32 607.9L1501.02 606.49L1498.66 605.12L1496.24 603.79L1493.76 602.49L1491.23 601.24L1488.66 600.04L1486.05 598.87L1483.4 597.76L1480.72 596.7L1478.01 595.7L1475.28 594.75L1472.53 593.86L1469.76 593.03L1466.99 592.26L1464.21 591.56L1461.42 590.92L1458.65 590.36L1455.88 589.87L1453.12 589.45L1450.38 589.11L1447.66 588.85L1444.96 588.67L1444.02 588.62L1443.04 588.57L1442.04 588.52L1441.02 588.48L1439.97 588.44L1438.89 588.4L1437.8 588.36L1436.69 588.34L1435.56 588.31L1434.42 588.3L1433.26 588.29L1432.09 588.3L1430.91 588.31L1429.73 588.34L1428.53 588.37L1427.33 588.42L1426.13 588.49L1424.92 588.57L1423.72 588.66L1422.51 588.77L1421.31 588.9L1420.12 589.05L1418.93 589.22L1417.74 589.41L1416.57 589.62L1415.41 589.85L1414.27 590.11L1413.14 590.39L1412.02 590.7L1410.93 591.03L1409.85 591.39L1408.8 591.78L1407.77 592.19L1406.76 592.64L1405.78 593.12L1404.83 593.63L1403.91 594.17L1403.02 594.74L1402.17 595.36L1401.35 596L1400.62 596.63L1399.9 597.27L1399.19 597.94L1398.5 598.63L1397.83 599.34L1397.16 600.07L1396.52 600.82L1395.88 601.59L1395.26 602.39L1394.65 603.21L1394.06 604.04L1393.48 604.9L1392.92 605.78L1392.37 606.69L1391.83 607.61L1391.31 608.56L1390.8 609.52L1390.3 610.51L1389.82 611.52L1389.36 612.55L1388.9 613.6L1388.47 614.68L1388.04 615.77L1387.63 616.89L1387.23 618.03L1386.85 619.19L1386.48 620.37L1386.13 621.57L1385.79 622.79L1385.46 624.04L1385.15 625.31L1384.85 626.59L1384.56 627.9L1384.29 629.23L1384.03 630.59L1383.79 631.96L1383.56 633.35L1383.35 634.77L1383.15 636.21L1382.96 637.67L1383.55 638L1384.14 638.33L1384.73 638.66L1385.31 638.99L1385.9 639.32L1386.49 639.65L1387.08 639.98L1387.66 640.31L1388.25 640.64L1388.84 640.96L1389.42 641.29L1390.01 641.61L1390.59 641.94L1391.18 642.26L1391.76 642.59L1392.35 642.91L1392.93 643.23L1393.51 643.55L1394.1 643.87L1394.68 644.19L1395.26 644.51L1395.84 644.83L1396.42 645.15L1397 645.47L1397.58 645.79L1398.16 646.1L1398.74 646.42L1399.32 646.73L1399.9 647.05L1400.48 647.36L1401.06 647.67L1401.64 647.99L1402.22 648.3L1402.79 648.61L1403.37 648.92L1403.95 649.23L1404.52 649.54L1405.1 649.85L1405.67 650.16L1406.25 650.47L1406.83 650.77L1407.4 651.06L1407.98 651.35L1408.56 651.63L1409.14 651.9L1409.72 652.16L1410.3 652.42L1410.88 652.66L1411.46 652.9L1412.04 653.13L1412.63 653.35L1413.21 653.57L1413.8 653.77L1414.39 653.97L1414.97 654.16L1415.56 654.34L1416.15 654.51L1416.74 654.68L1417.34 654.84L1417.93 654.98L1418.52 655.12L1419.11 655.26L1419.71 655.38L1420.31 655.5L1420.9 655.61L1421.5 655.71L1422.1 655.8L1422.7 655.88L1423.3 655.96L1423.9 656.02L1424.5 656.08L1425.1 656.13L1425.71 656.18L1426.31 656.21L1426.92 656.24L1427.52 656.26L1428.13 656.27L1428.74 656.27L1429.35 656.26L1429.96 656.25L1468.75 656.25L1467.7 658.11L1466.53 659.94L1465.23 661.75L1463.8 663.54L1462.25 665.3L1460.57 667.03L1458.76 668.75L1456.83 670.43L1454.77 672.1L1452.58 673.74L1450.27 675.35L1447.83 676.94L1445.26 678.51L1442.57 680.05L1439.75 681.57L1436.81 683.07L1433.73 684.54L1430.53 685.98L1427.21 687.41L1423.76 688.8L1420.18 690.18L1416.47 691.53L1412.64 692.85L1408.68 694.15L1404.6 695.43L1400.38 696.68L1396.05 697.91L1391.58 699.11L1386.99 700.29L1382.27 701.45L1377.43 702.58L1372.45 703.68L1367.36 704.77L1362.13 705.83L1356.78 706.86L1351.3 707.87L1345.7 708.86L1339.97 709.82L1334.11 710.75L1328.13 711.67L1319.05 712.98L1309.95 714.22L1300.83 715.39L1291.7 716.49L1282.54 717.52L1273.36 718.48L1264.16 719.37L1254.93 720.19L1245.67 720.94L1236.39 721.63L1227.07 722.25L1217.73 722.81L1208.35 723.31L1198.94 723.74L1189.49 724.11L1180 724.42L1170.48 724.67L1160.91 724.86L1151.3 724.99L1141.66 725.06L1131.96 725.08L1122.22 725.04L1112.44 724.94L1102.6 724.8L1092.72 724.59L1082.78 724.34L1072.8 724.03L1062.75 723.68L1052.66 723.27L1042.5 722.81L1032.29 722.31L1022.01 721.76L1011.68 721.16L1001.28 720.52L990.82 719.83L980.29 719.1L969.7 718.32L959.04 717.51L948.3 716.65L937.5 715.75L930.34 715.12L923.3 714.44L916.39 713.73L909.61 712.97L902.96 712.18L896.44 711.34L890.04 710.46L883.77 709.55L877.63 708.59L871.62 707.59L865.73 706.55L859.97 705.47L854.34 704.35L848.84 703.18L843.46 701.98L838.21 700.74L833.09 699.45L828.1 698.13L823.23 696.76L818.5 695.35L813.89 693.91L809.4 692.42L805.05 690.89L800.82 689.32L796.72 687.71L792.75 686.06L788.91 684.37L785.19 682.63L781.6 680.86L778.14 679.05L774.81 677.19L771.6 675.3L768.52 673.36L765.57 671.38L762.75 669.37L760.05 667.31L757.49 665.21L755.04 663.07L752.73 660.89L750.55 658.67L813.05 665.67L815.12 664.56L817.26 663.47L819.45 662.38L821.7 661.31L824 660.24L826.36 659.18L828.78 658.14L831.26 657.1L833.79 656.07L836.38 655.05L839.02 654.05L841.73 653.05L844.49 652.06L847.3 651.08L850.18 650.11L853.11 649.15L856.09 648.2L859.14 647.26L862.24 646.33L865.4 645.41L868.61 644.49L871.88 643.59L875.21 642.7L878.6 641.82L882.04 640.94L885.54 640.08L889.1 639.23L892.71 638.38L896.38 637.55L900.1 636.72L903.89 635.91L907.73 635.1L911.63 634.3L915.58 633.52L919.59 632.74L923.66 631.97L927.78 631.22L931.97 630.47L936.2 629.73L940.5 629L946.89 627.94L953.09 626.93L959.11 625.97L964.96 625.05L970.66 624.19L976.22 623.36L981.64 622.58L986.94 621.85L992.14 621.15L997.23 620.5L1002.24 619.88L1007.18 619.3L1012.05 618.76L1016.86 618.25L1021.64 617.78L1026.39 617.34L1031.12 616.93L1035.84 616.55L1040.56 616.21L1045.3 615.88L1050.07 615.59L1054.88 615.32L1059.74 615.07L1064.65 614.85L1069.64 614.65L1074.72 614.47L1079.89 614.3L1085.17 614.16L1090.56 614.03L1096.09 613.92L1101.75 613.82L1107.57 613.74L1113.55 613.66L1119.71 613.6L1126.05 613.55L1132.59 613.5L1139.34 613.46L1146.31 613.43L1153.51 613.4L1160.96 613.38L1166 613.37L1171.01 613.38L1176 613.41L1180.96 613.46L1185.91 613.53L1190.83 613.61L1195.72 613.72L1200.6 613.84L1205.45 613.98L1210.27 614.14L1215.08 614.32L1219.86 614.52L1224.62 614.74L1229.35 614.97L1234.06 615.23L1238.75 615.5L1243.41 615.79L1248.06 616.1L1252.67 616.43L1257.27 616.78L1261.84 617.15L1266.39 617.53L1270.91 617.94L1275.42 618.36L1279.9 618.8L1284.35 619.26L1288.78 619.74L1293.19 620.24L1297.58 620.76L1301.94 621.29L1306.28 621.84L1310.6 622.42L1314.89 623.01L1319.16 623.62L1323.41 624.25L1327.63 624.89L1331.83 625.56L1336.01 626.24L1340.17 626.95L1344.3 627.67L1375 578.13L1365.83 576.29L1356.68 574.53L1347.55 572.84L1338.44 571.21L1329.34 569.64L1320.27 568.15L1311.21 566.72L1302.17 565.36L1293.15 564.06L1284.14 562.83L1275.16 561.67L1266.19 560.58L1257.25 559.55L1248.32 558.59L1239.41 557.69L1230.51 556.86L1221.64 556.1L1212.79 555.41L1203.95 554.78L1195.13 554.22L1186.33 553.73L1177.55 553.3L1168.78 552.94L1160.04 552.65L1151.31 552.42L1142.6 552.26L1133.92 552.17L1125.24 552.15L1116.59 552.19L1107.96 552.29ZM609.98 766.97L609.65 767.04L609.32 767.14L609.01 767.28L608.7 767.44L608.4 767.63L608.11 767.84L607.83 768.09L607.56 768.36L607.3 768.67L607.04 769L606.79 769.36L606.55 769.75L606.32 770.16L606.1 770.61L605.89 771.08L605.69 771.59L605.49 772.12L605.3 772.68L605.13 773.27L604.96 773.88L604.79 774.53L604.64 775.2L604.5 775.9L604.36 776.64L604.23 777.39L604.12 778.18L604 779L603.9 779.84L603.81 780.72L603.73 781.62L603.65 782.55L603.58 783.51L603.52 784.5L603.47 785.51L603.43 786.56L603.4 787.63L603.38 788.73L605.02 794.27L606.58 799.9L608.05 805.6L609.44 811.39L610.75 817.26L611.97 823.21L613.11 829.24L614.16 835.35L615.13 841.55L616.02 847.83L616.82 854.19L617.54 860.63L618.18 867.15L618.73 873.76L619.19 880.44L619.58 887.21L619.87 894.06L620.09 901L620.22 908.01L620.27 915.11L620.23 922.29L620.11 929.55L619.9 936.89L619.61 944.31L619.24 951.82L618.78 959.41L618.24 967.08L617.62 974.83L616.91 982.66L616.11 990.58L615.24 998.57L614.28 1006.65L613.23 1014.81L612.1 1023.06L610.89 1031.38L609.59 1039.79L608.21 1048.28L606.74 1056.85L605.2 1065.5L603.56 1074.23L602.68 1078.8L601.78 1083.39L600.85 1087.98L599.9 1092.58L598.93 1097.19L597.94 1101.81L596.92 1106.44L595.89 1111.08L594.82 1115.71L593.74 1120.35L592.63 1125L591.5 1129.64L590.34 1134.29L589.16 1138.93L587.95 1143.57L586.73 1148.21L585.47 1152.84L584.19 1157.47L582.89 1162.09L581.56 1166.7L580.21 1171.31L578.83 1175.9L577.42 1180.48L575.99 1185.05L574.53 1189.61L573.05 1194.15L571.53 1198.68L570 1203.19L568.43 1207.68L566.84 1212.16L565.22 1216.61L563.57 1221.04L561.9 1225.45L560.2 1229.83L558.47 1234.19L556.71 1238.53L554.92 1242.84L553.11 1247.12L551.26 1251.37L549.39 1255.59L547.64 1259.46L545.86 1263.32L544.06 1267.16L542.24 1270.99L540.39 1274.81L538.53 1278.6L536.63 1282.39L534.72 1286.15L532.78 1289.91L530.82 1293.64L528.84 1297.37L526.83 1301.07L524.81 1304.77L522.75 1308.44L520.68 1312.1L518.58 1315.75L516.46 1319.38L514.32 1323L512.15 1326.6L509.96 1330.19L507.75 1333.76L505.52 1337.31L503.26 1340.86L500.98 1344.38L498.68 1347.89L496.35 1351.39L494 1354.87L491.63 1358.33L489.23 1361.78L486.81 1365.22L484.37 1368.64L481.91 1372.04L479.42 1375.43L476.91 1378.81L474.38 1382.16L471.83 1385.51L469.25 1388.84L466.65 1392.15L464.02 1395.45L461.37 1398.73L467.71 1393.62L473.92 1388.38L480.02 1383.01L486 1377.51L491.86 1371.87L497.6 1366.1L503.22 1360.2L508.72 1354.16L514.1 1348L519.37 1341.7L524.51 1335.27L529.54 1328.71L534.45 1322.02L539.23 1315.19L543.9 1308.23L548.45 1301.14L552.89 1293.92L557.2 1286.57L561.39 1279.08L565.47 1271.46L569.42 1263.71L573.26 1255.83L576.98 1247.82L580.58 1239.67L584.06 1231.39L587.42 1222.98L590.66 1214.44L593.79 1205.77L596.79 1196.96L599.68 1188.02L602.45 1178.95L605.1 1169.75L607.62 1160.41L610.03 1150.95L612.33 1141.35L614.5 1131.62L616.55 1121.76L618.49 1111.76L620.3 1101.63L622 1091.38L623.22 1083.59L624.39 1075.87L625.51 1068.23L626.59 1060.66L627.62 1053.17L628.61 1045.75L629.55 1038.41L630.44 1031.14L631.29 1023.96L632.1 1016.85L632.86 1009.83L633.57 1002.88L634.24 996.03L634.86 989.25L635.44 982.56L635.98 975.96L636.47 969.44L636.92 963.01L637.32 956.68L637.68 950.43L637.99 944.28L638.26 938.21L638.49 932.25L638.67 926.37L638.81 920.6L638.91 914.92L638.96 909.34L638.97 903.86L638.94 898.48L638.87 893.2L638.75 888.02L638.59 882.95L638.39 877.98L638.15 873.12L637.86 868.37L637.54 863.72L637.17 859.19L636.76 854.76L636.31 850.45L635.81 846.24L635.3 842.24L634.75 838.34L634.18 834.55L633.58 830.86L632.97 827.29L632.33 823.82L631.68 820.47L631 817.21L630.31 814.07L629.61 811.03L628.9 808.09L628.18 805.26L627.45 802.54L626.71 799.92L625.97 797.4L625.22 794.99L624.48 792.67L623.73 790.47L622.99 788.36L622.25 786.35L621.52 784.45L620.79 782.65L620.08 780.94L619.37 779.34L618.68 777.84L618 776.43L617.34 775.13L616.7 773.92L616.07 772.81L615.47 771.79L614.89 770.88L614.34 770.06L613.81 769.33L613.32 768.7L612.85 768.17L612.41 767.73L612.01 767.39L611.65 767.14L611.32 766.98L611.03 766.91L610.67 766.9L610.32 766.92L609.98 766.97ZM1750 1069.63L1750 1051.63L1651.13 961.62L1640.63 968.75L1750 1069.63ZM1632.95 882.85L1631.57 883.27L1630.22 883.86L1628.91 884.62L1627.7 885.46L1626.68 886.26L1625.81 887.02L1625.09 887.75L1624.51 888.45L1624.06 889.13L1623.71 889.79L1623.46 890.43L1623.3 891.05L1623.2 891.67L1623.17 892.28L1623.18 892.88L1623.23 893.48L1623.29 894.09L1623.37 894.7L1623.43 895.33L1623.48 895.97L1623.5 896.62L1623.47 897.3L1623.39 898L1623.23 898.73L1623 899.49L1622.67 900.29L1622.29 901.07L1621.91 901.8L1621.54 902.46L1621.19 903.07L1620.84 903.64L1620.51 904.17L1620.2 904.67L1619.9 905.13L1619.62 905.58L1619.36 906L1619.13 906.41L1618.92 906.81L1618.74 907.21L1618.58 907.62L1618.46 908.03L1618.37 908.46L1618.31 908.9L1618.29 909.37L1618.31 909.88L1618.37 910.41L1618.46 910.99L1618.61 911.62L1618.79 912.29L1619.03 913L1619.33 913.72L1619.67 914.44L1620.07 915.17L1620.52 915.88L1621.01 916.59L1621.56 917.28L1622.14 917.95L1622.77 918.59L1623.44 919.2L1624.15 919.77L1624.9 920.3L1625.69 920.78L1626.51 921.21L1627.36 921.58L1628.24 921.89L1629.15 922.14L1630.09 922.31L1631.06 922.4L1632.05 922.4L1633.06 922.32L1634.09 922.15L1635.15 921.88L1636.2 921.55L1637.23 921.22L1638.24 920.88L1639.23 920.53L1640.19 920.15L1641.13 919.74L1642.04 919.3L1642.92 918.81L1643.77 918.28L1644.58 917.69L1645.36 917.05L1646.1 916.34L1646.8 915.55L1647.47 914.69L1648.09 913.74L1648.67 912.7L1649.2 911.56L1649.68 910.32L1650.12 908.97L1650.51 907.5L1650.84 905.91L1651.12 904.2L1651.34 902.34L1651.45 900.45L1651.4 898.63L1651.18 896.87L1650.82 895.19L1650.32 893.58L1649.7 892.07L1648.95 890.64L1648.1 889.31L1647.15 888.08L1646.11 886.96L1644.99 885.96L1643.8 885.07L1642.56 884.3L1641.26 883.66L1639.92 883.16L1638.55 882.8L1637.16 882.58L1635.75 882.51L1634.35 882.6L1632.95 882.85ZM678.2 634.09L676.76 634.31L675.15 634.64L673.36 635.05L671.4 635.55L669.29 636.13L667.02 636.79L664.61 637.52L662.07 638.31L659.39 639.17L656.59 640.07L653.67 641.03L650.65 642.03L647.52 643.07L644.3 644.14L641 645.24L637.61 646.36L634.15 647.5L630.62 648.65L627.04 649.8L623.4 650.96L619.72 652.11L616 653.25L612.25 654.37L608.48 655.47L604.69 656.55L600.89 657.59L597.09 658.6L593.3 659.56L589.52 660.48L585.76 661.34L582.02 662.14L578.32 662.88L574.67 663.54L571.06 664.14L567.5 664.65L564.08 665.09L560.85 665.47L557.81 665.81L554.95 666.09L552.25 666.33L549.71 666.52L547.31 666.68L545.05 666.79L542.92 666.87L540.9 666.93L538.99 666.95L537.18 666.95L535.45 666.92L533.79 666.88L532.2 666.82L530.67 666.74L529.18 666.66L527.73 666.56L526.31 666.47L524.89 666.37L523.49 666.27L522.08 666.18L520.65 666.09L519.2 666.02L517.72 665.95L516.18 665.91L514.6 665.88L512.95 665.88L511.22 665.9L509.41 665.95L507.5 666.03L505.49 666.14L503.36 666.29L501.1 666.49L498.71 666.72L496.18 667L493.49 667.33L490.63 667.71L487.59 668.15L484.38 668.65L481.07 669.17L477.78 669.69L474.52 670.22L471.28 670.74L468.07 671.26L464.89 671.79L461.74 672.31L458.63 672.84L455.56 673.37L452.52 673.91L449.54 674.45L446.6 674.99L443.7 675.54L440.86 676.1L438.07 676.66L435.34 677.23L432.67 677.81L430.06 678.4L427.52 678.99L425.04 679.6L422.64 680.21L420.3 680.84L418.04 681.48L415.86 682.13L413.76 682.79L411.74 683.46L409.8 684.15L407.96 684.86L406.2 685.58L404.54 686.31L402.97 687.06L401.51 687.83L400.14 688.61L398.88 689.42L397.72 690.24L396.67 691.08L395.74 691.94L394.92 692.82L394.21 693.72L393.63 694.65L393.2 695.53L392.99 696.32L392.98 697.02L393.16 697.63L393.53 698.15L394.08 698.59L394.81 698.96L395.72 699.24L396.8 699.46L398.04 699.61L399.43 699.7L400.98 699.73L402.67 699.7L404.51 699.61L406.48 699.48L408.59 699.3L410.81 699.08L413.16 698.82L415.63 698.53L418.2 698.2L420.88 697.84L423.65 697.46L426.52 697.06L429.48 696.64L432.52 696.21L435.63 695.77L438.82 695.32L442.08 694.87L445.39 694.42L448.76 693.97L452.19 693.53L455.65 693.1L459.16 692.69L462.7 692.29L466.27 691.92L469.87 691.57L473.48 691.25L477.11 690.96L480.74 690.71L484.38 690.5L487.93 690.33L491.32 690.18L494.57 690.07L497.67 689.98L500.63 689.91L503.48 689.86L506.2 689.83L508.82 689.82L511.33 689.82L513.75 689.83L516.09 689.85L518.35 689.87L520.55 689.89L522.68 689.92L524.76 689.94L526.81 689.96L528.81 689.98L530.79 689.98L532.75 689.97L534.71 689.94L536.66 689.9L538.62 689.84L540.59 689.76L542.59 689.65L544.62 689.51L546.68 689.35L548.8 689.15L550.98 688.92L553.21 688.65L555.53 688.34L557.92 687.99L560.4 687.59L562.99 687.14L565.67 686.65L568.48 686.1L571.4 685.5L574.46 684.84L577.66 684.13L581 683.35L584.5 682.5L588.09 681.59L591.7 680.61L595.33 679.56L598.96 678.46L602.59 677.3L606.22 676.09L609.83 674.84L613.43 673.55L617 672.21L620.54 670.84L624.05 669.45L627.51 668.02L630.93 666.58L634.29 665.12L637.59 663.64L640.82 662.16L643.98 660.67L647.06 659.18L650.06 657.7L652.96 656.22L655.77 654.75L658.48 653.3L661.07 651.87L663.55 650.46L665.9 649.08L668.13 647.74L670.22 646.43L672.18 645.16L673.98 643.94L675.64 642.76L677.13 641.64L678.46 640.58L679.62 639.57L680.6 638.64L681.4 637.77L682.01 636.98L682.42 636.26L682.64 635.63L682.64 635.08L682.43 634.63L682 634.28L681.36 634.06L680.5 633.96L679.45 633.97L678.2 634.09ZM1111.39 628.06L1102.64 628.19L1094.02 628.39L1085.53 628.66L1077.18 628.99L1068.97 629.39L1060.92 629.84L1053.01 630.34L1045.25 630.89L1037.65 631.49L1030.22 632.13L1022.95 632.81L1015.85 633.53L1008.92 634.28L1002.17 635.05L995.59 635.85L989.21 636.67L983.01 637.51L977 638.37L971.18 639.23L965.57 640.1L960.16 640.98L954.96 641.85L949.96 642.72L945.18 643.58L940.62 644.43L936.28 645.27L932.17 646.09L928.28 646.89L924.63 647.67L921.21 648.41L918.04 649.12L915.11 649.8L912.42 650.44L909.99 651.04L907.82 651.59L905.9 652.09L904.25 652.53L902.87 652.92L901.75 653.25L900.76 653.56L899.73 653.88L898.69 654.21L897.62 654.56L896.53 654.92L895.43 655.3L894.32 655.69L893.2 656.09L892.07 656.5L890.94 656.92L889.82 657.36L888.69 657.8L887.58 658.25L886.47 658.71L885.38 659.18L884.3 659.66L883.25 660.14L882.22 660.63L881.22 661.12L880.24 661.63L879.31 662.13L878.4 662.64L877.54 663.15L876.72 663.67L875.95 664.19L875.22 664.71L874.55 665.23L873.93 665.75L873.38 666.27L872.88 666.79L872.46 667.32L872.1 667.84L871.81 668.35L871.6 668.87L871.46 669.38L871.41 669.89L871.44 670.39L871.57 670.89L871.78 671.39L872.09 671.88L872.47 672.33L872.89 672.73L873.35 673.06L873.85 673.35L874.39 673.58L874.97 673.76L875.58 673.9L876.22 673.99L876.9 674.04L877.6 674.04L878.33 674.01L879.09 673.94L879.87 673.84L880.67 673.71L881.5 673.55L882.34 673.36L883.2 673.15L884.07 672.91L884.96 672.66L885.86 672.39L886.78 672.1L887.7 671.8L888.62 671.49L889.55 671.17L890.49 670.85L891.43 670.52L892.36 670.19L893.3 669.87L894.23 669.54L895.16 669.23L896.07 668.92L896.99 668.62L897.89 668.33L898.77 668.06L899.65 667.8L900.51 667.57L901.35 667.36L902.17 667.17L902.97 667.01L903.75 666.87L904.68 666.73L905.94 666.52L907.51 666.25L909.39 665.93L911.57 665.56L914.05 665.15L916.81 664.69L919.86 664.19L923.19 663.65L926.78 663.07L930.63 662.47L934.74 661.83L939.1 661.17L943.69 660.49L948.52 659.79L953.58 659.08L958.85 658.35L964.34 657.62L970.04 656.88L975.93 656.13L982.02 655.39L988.29 654.65L994.74 653.92L1001.36 653.19L1008.14 652.49L1015.09 651.79L1022.18 651.12L1029.42 650.47L1036.8 649.85L1044.3 649.25L1051.93 648.69L1059.68 648.17L1067.53 647.68L1075.49 647.23L1083.54 646.83L1091.68 646.48L1099.91 646.18L1108.21 645.94L1116.57 645.75L1125 645.63L1130.63 645.58L1136.23 645.55L1141.82 645.56L1147.38 645.59L1152.93 645.65L1158.45 645.74L1163.95 645.86L1169.43 646L1174.89 646.17L1180.33 646.37L1185.75 646.59L1191.14 646.84L1196.52 647.12L1201.87 647.43L1207.21 647.76L1212.52 648.13L1217.81 648.51L1223.08 648.93L1228.33 649.37L1233.56 649.84L1238.77 650.34L1243.96 650.87L1249.12 651.42L1254.27 652L1259.39 652.61L1264.5 653.24L1269.58 653.9L1274.64 654.59L1279.68 655.31L1284.7 656.05L1289.7 656.83L1294.68 657.63L1299.64 658.45L1304.57 659.3L1309.49 660.19L1314.38 661.09L1319.26 662.03L1324.11 662.99L1328.94 663.98L1333.75 665L1343.75 643L1338.53 642.25L1333.29 641.51L1328.03 640.8L1322.75 640.11L1317.46 639.43L1312.14 638.77L1306.81 638.14L1301.46 637.52L1296.09 636.92L1290.7 636.34L1285.29 635.78L1279.86 635.25L1274.42 634.72L1268.95 634.22L1263.47 633.74L1257.96 633.28L1252.44 632.84L1246.9 632.41L1241.34 632.01L1235.77 631.63L1230.17 631.26L1224.56 630.91L1218.92 630.59L1213.27 630.28L1207.6 629.99L1201.91 629.72L1196.2 629.47L1190.47 629.25L1184.72 629.03L1178.96 628.84L1173.17 628.67L1167.37 628.52L1161.55 628.39L1155.71 628.27L1149.85 628.18L1143.97 628.11L1138.08 628.05L1132.16 628.01L1126.23 628L1120.27 628L1111.39 628.06Z" id="cWLMIiFws"></path><path d="M1578.13 1437.5C1573.39 1479.26 1530.73 1497.82 1453.13 1520.63C1375.52 1543.43 1300.46 1563.01 1135.7 1567.5C1031.89 1570.33 873.5 1546.92 812.5 1531.25C751.5 1515.58 701.45 1487.86 684.7 1445.13C673.53 1416.63 690.09 1404.35 734.38 1408.29C706.88 1417.96 696.46 1430.96 703.13 1447.29C713.13 1471.78 891.55 1535.2 1134.7 1534.25C1377.84 1533.3 1547.2 1462.75 1555.7 1437.5C1561.36 1420.67 1548.01 1408.58 1515.63 1401.25C1560.45 1397.58 1581.28 1409.66 1578.13 1437.5Z" id="bRhuSX6nN"></path></defs><g><g><g><use xlink:href="#cWLMIiFws" opacity="1" fill="#000000" fill-opacity="1"></use></g><g><use xlink:href="#bRhuSX6nN" opacity="1" fill="#000000" fill-opacity="1"></use></g></g></g></svg>